<svg text-anchor="middle" style="width: 100%; height: auto; background: rgb(255, 255, 255); font: 10px sans-serif;" viewBox="119.84562683105469 137.9028778076172 718.4347534179688 467.64337158203125" xmlns="http://www.w3.org/2000/svg" xmlns:xlink="http://www.w3.org/1999/xlink"><g transform="translate(608.7243261583008,213.11301361153545)" fill="#e4e4e4"><path id="O-circle-6157" d="M-3.7852878073313664e-15,20.60614706742021A20.60614706742021,20.60614706742021,0,1,1,3.7852878073313664e-15,-20.60614706742021A20.60614706742021,20.60614706742021,0,1,1,-3.7852878073313664e-15,20.60614706742021Z"/><text fill="#000"><tspan x="0" y="-2.1999999999999993">klinghofferj</tspan><tspan x="0" y="8.8" font-weight="300" fill-opacity="0.5">66</tspan></text></g><g transform="translate(556.0208936445854,213.11301361153545)" fill="#e4e4e4"><path id="O-circle-6158" d="M-5.3734443884438165e-15,29.25166881958683A29.25166881958683,29.25166881958683,0,1,1,5.3734443884438165e-15,-29.25166881958683A29.25166881958683,29.25166881958683,0,1,1,-5.3734443884438165e-15,29.25166881958683Z"/><text fill="#000"><tspan x="0" y="-2.1999999999999993">crf_marlon10</tspan><tspan x="0" y="8.8" font-weight="300" fill-opacity="0.5">133</tspan></text></g><g transform="translate(639.7099151753238,532.5215232890538)" fill="#e4e4e4"><path id="O-circle-6159" d="M-2.185436934522973e-15,11.896964556336076A11.896964556336076,11.896964556336076,0,1,1,2.185436934522973e-15,-11.896964556336076A11.896964556336076,11.896964556336076,0,1,1,-2.185436934522973e-15,11.896964556336076Z"/><text fill="#000"><tspan x="0" y="-2.1999999999999993">Cavalinhodocec</tspan><tspan x="0" y="8.8" font-weight="300" fill-opacity="0.5">22</tspan></text></g><g transform="translate(569.1080072938107,532.5215232890538)" fill="#e4e4e4"><path id="O-circle-6160" d="M-1.0261191846570894e-14,55.85932669846869A55.85932669846869,55.85932669846869,0,1,1,1.0261191846570894e-14,-55.85932669846869A55.85932669846869,55.85932669846869,0,1,1,-1.0261191846570894e-14,55.85932669846869Z"/><text fill="#000"><tspan x="0" y="-2.1999999999999993">Flamengoloide</tspan><tspan x="0" y="8.8" font-weight="300" fill-opacity="0.5">485</tspan></text></g><g transform="translate(597.2391223257029,312.307786648935)" fill="#e4e4e4"><path id="O-circle-6161" d="M-3.2946701430896376e-15,17.935348898874437A17.935348898874437,17.935348898874437,0,1,1,3.2946701430896376e-15,-17.935348898874437A17.935348898874437,17.935348898874437,0,1,1,-3.2946701430896376e-15,17.935348898874437Z"/><text fill="#000"><tspan x="0" y="-2.1999999999999993">futebol_info</tspan><tspan x="0" y="8.8" font-weight="300" fill-opacity="0.5">50</tspan></text></g><g transform="translate(801.6397500637971,312.3848443445222)" fill="#e4e4e4"><path id="O-circle-6162" d="M-3.3274537380407888e-15,18.113814477542924A18.113814477542924,18.113814477542924,0,1,1,3.3274537380407888e-15,-18.113814477542924A18.113814477542924,18.113814477542924,0,1,1,-3.3274537380407888e-15,18.113814477542924Z"/><text fill="#000"><tspan x="0" y="-2.1999999999999993">centraldanacao</tspan><tspan x="0" y="8.8" font-weight="300" fill-opacity="0.5">51</tspan></text></g><g transform="translate(764.3358215247198,440.7643581135918)" fill="#e4e4e4"><path id="O-circle-6163" d="M-3.578927855529393e-15,19.482775812156248A19.482775812156248,19.482775812156248,0,1,1,3.578927855529393e-15,-19.482775812156248A19.482775812156248,19.482775812156248,0,1,1,-3.578927855529393e-15,19.482775812156248Z"/><text fill="#000"><tspan x="0" y="-2.1999999999999993">ColunadoFla</tspan><tspan x="0" y="8.8" font-weight="300" fill-opacity="0.5">59</tspan></text></g><g transform="translate(633.4160634320597,443.43822982216994)" fill="#e4e4e4"><path id="O-circle-6164" d="M-4.008139219215584e-15,21.81929364997977A21.81929364997977,21.81929364997977,0,1,1,4.008139219215584e-15,-21.81929364997977A21.81929364997977,21.81929364997977,0,1,1,-4.008139219215584e-15,21.81929364997977Z"/><text fill="#000"><tspan x="0" y="-2.1999999999999993">rodrigorotzsch</tspan><tspan x="0" y="8.8" font-weight="300" fill-opacity="0.5">74</tspan></text></g><g transform="translate(762.8476079359621,288.0157613813633)" fill="#e4e4e4"><path id="O-circle-6165" d="M-4.565228865609179e-15,24.85194843546003A24.85194843546003,24.85194843546003,0,1,1,4.565228865609179e-15,-24.85194843546003A24.85194843546003,24.85194843546003,0,1,1,-4.565228865609179e-15,24.85194843546003Z"/><text fill="#000"><tspan x="0" y="-2.1999999999999993">rodolfo1975</tspan><tspan x="0" y="8.8" font-weight="300" fill-opacity="0.5">96</tspan></text></g><g transform="translate(636.2703955994987,286.092080984584)" fill="#e4e4e4"><path id="O-circle-6166" d="M-4.819686908169437e-15,26.23715350159241A26.23715350159241,26.23715350159241,0,1,1,4.819686908169437e-15,-26.23715350159241A26.23715350159241,26.23715350159241,0,1,1,-4.819686908169437e-15,26.23715350159241Z"/><text fill="#000"><tspan x="0" y="-2.1999999999999993">EuclidesFla</tspan><tspan x="0" y="8.8" font-weight="300" fill-opacity="0.5">107</tspan></text></g><g transform="translate(700.1447996457763,294.39132216398406)" fill="#e4e4e4"><path id="O-circle-6167" d="M-6.489747548622613e-15,35.328540186122936A35.328540186122936,35.328540186122936,0,1,1,6.489747548622613e-15,-35.328540186122936A35.328540186122936,35.328540186122936,0,1,1,-6.489747548622613e-15,35.328540186122936Z"/><text fill="#000"><tspan x="0" y="-2.1999999999999993">gustavovillani</tspan><tspan x="0" y="8.8" font-weight="300" fill-opacity="0.5">194</tspan></text></g><g transform="translate(700.1806423501407,448.49544389716607)" fill="#e4e4e4"><path id="O-circle-6168" d="M-7.7687176236378e-15,42.29092899300536A42.29092899300536,42.29092899300536,0,1,1,7.7687176236378e-15,-42.29092899300536A42.29092899300536,42.29092899300536,0,1,1,-7.7687176236378e-15,42.29092899300536Z"/><text fill="#000"><tspan x="0" y="-2.1999999999999993">vgammaross</tspan><tspan x="0" y="8.8" font-weight="300" fill-opacity="0.5">278</tspan></text></g><g transform="translate(753.4218359272985,367.19770641581687)" fill="#e4e4e4"><path id="O-circle-6169" d="M-9.56022219312251e-15,52.0434256352047A52.0434256352047,52.0434256352047,0,1,1,9.56022219312251e-15,-52.0434256352047A52.0434256352047,52.0434256352047,0,1,1,-9.56022219312251e-15,52.0434256352047Z"/><text fill="#000"><tspan x="0" y="-2.1999999999999993">Flamengo</tspan><tspan x="0" y="8.8" font-weight="300" fill-opacity="0.5">421</tspan></text></g><g transform="translate(645.936026035906,367.19770641581687)" fill="#e4e4e4"><path id="O-circle-6170" d="M-9.661869468440882e-15,52.59676762947952A52.59676762947952,52.59676762947952,0,1,1,9.661869468440882e-15,-52.59676762947952A52.59676762947952,52.59676762947952,0,1,1,-9.661869468440882e-15,52.59676762947952Z"/><text fill="#000"><tspan x="0" y="-2.1999999999999993">andrizek</tspan><tspan x="0" y="8.8" font-weight="300" fill-opacity="0.5">430</tspan></text></g><g transform="translate(510.8273452089164,435.9588828142583)" fill="#e4e4e4"><path id="O-circle-6171" d="M-6.075071571266086e-15,33.07114930604638A33.07114930604638,33.07114930604638,0,1,1,6.075071571266086e-15,-33.07114930604638A33.07114930604638,33.07114930604638,0,1,1,-6.075071571266086e-15,33.07114930604638Z"/><text fill="#000"><tspan x="0" y="-2.1999999999999993">Vitor9_oficial</tspan><tspan x="0" y="8.8" font-weight="300" fill-opacity="0.5">170</tspan></text></g><g transform="translate(510.1130696748061,293.1832947434839)" fill="#e4e4e4"><path id="O-circle-6172" d="M-6.146127455898283e-15,33.457959525840195A33.457959525840195,33.457959525840195,0,1,1,6.146127455898283e-15,-33.457959525840195A33.457959525840195,33.457959525840195,0,1,1,-6.146127455898283e-15,33.457959525840195Z"/><text fill="#000"><tspan x="0" y="-2.1999999999999993">rodolfo1975</tspan><tspan x="0" y="8.8" font-weight="300" fill-opacity="0.5">174</tspan></text></g><g transform="translate(279.42020861807276,533.5901060253119)" fill="#e4e4e4"><path id="O-circle-6173" d="M-6.198884882400437e-15,33.74515757912862A33.74515757912862,33.74515757912862,0,1,1,6.198884882400437e-15,-33.74515757912862A33.74515757912862,33.74515757912862,0,1,1,-6.198884882400437e-15,33.74515757912862Z"/><text fill="#000"><tspan x="0" y="-2.1999999999999993">EuclidesFla</tspan><tspan x="0" y="8.8" font-weight="300" fill-opacity="0.5">177</tspan></text></g><g transform="translate(266.2144447235593,194.2810893813666)" fill="#e4e4e4"><path id="O-circle-6174" d="M-6.622205030134285e-15,36.04960513101912A36.04960513101912,36.04960513101912,0,1,1,6.622205030134285e-15,-36.04960513101912A36.04960513101912,36.04960513101912,0,1,1,-6.622205030134285e-15,36.04960513101912Z"/><text fill="#000"><tspan x="0" y="-2.1999999999999993">globoesportecom</tspan><tspan x="0" y="8.8" font-weight="300" fill-opacity="0.5">202</tspan></text></g><g transform="translate(354.08407197650223,519.5800228911119)" fill="#e4e4e4"><path id="O-circle-6175" d="M-7.233283038531917e-15,39.37615887055768A39.37615887055768,39.37615887055768,0,1,1,7.233283038531917e-15,-39.37615887055768A39.37615887055768,39.37615887055768,0,1,1,-7.233283038531917e-15,39.37615887055768Z"/><text fill="#000"><tspan x="0" y="-2.1999999999999993">crf_marlon10</tspan><tspan x="0" y="8.8" font-weight="300" fill-opacity="0.5">241</tspan></text></g><g transform="translate(353.3100054198944,200.065575128317)" fill="#e4e4e4"><path id="O-circle-6176" d="M-8.889506051567692e-15,48.39221701994356A48.39221701994356,48.39221701994356,0,1,1,8.889506051567692e-15,-48.39221701994356A48.39221701994356,48.39221701994356,0,1,1,-8.889506051567692e-15,48.39221701994356Z"/><text fill="#000"><tspan x="0" y="-2.1999999999999993">Brasileirao</tspan><tspan x="0" y="8.8" font-weight="300" fill-opacity="0.5">364</tspan></text></g><g transform="translate(428.9039887234204,266.27063384931114)" fill="#e4e4e4"><path id="O-circle-6177" d="M-9.04685465741093e-15,49.248782934582735A49.248782934582735,49.248782934582735,0,1,1,9.04685465741093e-15,-49.248782934582735A49.248782934582735,49.248782934582735,0,1,1,-9.04685465741093e-15,49.248782934582735Z"/><text fill="#000"><tspan x="0" y="-2.1999999999999993">centraldanacao</tspan><tspan x="0" y="8.8" font-weight="300" fill-opacity="0.5">377</tspan></text></g><g transform="translate(429.4894877500612,465.44825735534044)" fill="#e4e4e4"><path id="O-circle-6178" d="M-9.295408369730707e-15,50.60184632392258A50.60184632392258,50.60184632392258,0,1,1,9.295408369730707e-15,-50.60184632392258A50.60184632392258,50.60184632392258,0,1,1,-9.295408369730707e-15,50.60184632392258Z"/><text fill="#000"><tspan x="0" y="-2.1999999999999993">BuchechaOficial</tspan><tspan x="0" y="8.8" font-weight="300" fill-opacity="0.5">398</tspan></text></g><g transform="translate(459.82175032342866,365.06161482248876)" fill="#e4e4e4"><path id="O-circle-6179" d="M-9.445997994469348e-15,51.421618059160785A51.421618059160785,51.421618059160785,0,1,1,9.445997994469348e-15,-51.421618059160785A51.421618059160785,51.421618059160785,0,1,1,-9.445997994469348e-15,51.421618059160785Z"/><text fill="#000"><tspan x="0" y="-2.1999999999999993">Reikrauss</tspan><tspan x="0" y="8.8" font-weight="300" fill-opacity="0.5">411</tspan></text></g><g transform="translate(273.5133125426918,365.06161482248876)" fill="#e4e4e4"><path id="O-circle-6180" d="M-2.4255575508854314e-14,132.0412030948678A132.0412030948678,132.0412030948678,0,1,1,2.4255575508854314e-14,-132.0412030948678A132.0412030948678,132.0412030948678,0,1,1,-2.4255575508854314e-14,132.0412030948678Z"/><text fill="#000"><tspan x="0" y="-2.1999999999999993">Flamengo</tspan><tspan x="0" y="8.8" font-weight="300" fill-opacity="0.5">2,710</tspan></text></g><g transform="translate(578.0498490253598,213.11301361153545)"><path id="O-circle-6181" d="M-9.942829136812415e-15,54.12624082706949A54.12624082706949,54.12624082706949,0,1,1,9.942829136812415e-15,-54.12624082706949A54.12624082706949,54.12624082706949,0,1,1,-9.942829136812415e-15,54.12624082706949Z" stroke="#e4e4e4" fill="none"/><text dy="1em" fill="#555"><textPath xlink:href="#O-circle-6181" startOffset="50%">Vasco</textPath></text></g><g transform="translate(582.427780163501,532.5215232890538)"><path id="O-circle-6182" d="M-1.3230725722131101e-14,72.02471619486722A72.02471619486722,72.02471619486722,0,1,1,1.3230725722131101e-14,-72.02471619486722A72.02471619486722,72.02471619486722,0,1,1,-1.3230725722131101e-14,72.02471619486722Z" stroke="#e4e4e4" fill="none"/><text dy="1em" fill="#555"><textPath xlink:href="#O-circle-6182" startOffset="50%">Cheirinho</textPath></text></g><g transform="translate(699.5199274122278,360)"><path id="O-circle-6183" d="M-2.4548251312277215e-14,133.63445596106385A133.63445596106385,133.63445596106385,0,1,1,2.4548251312277215e-14,-133.63445596106385A133.63445596106385,133.63445596106385,0,1,1,-2.4548251312277215e-14,133.63445596106385Z" stroke="#e4e4e4" fill="none"/><text dy="1em" fill="#555"><textPath xlink:href="#O-circle-6183" startOffset="50%">Palmeiras</textPath></text></g><g transform="translate(341.942735725582,360)"><path id="O-circle-6184" d="M-4.0614881880770517e-14,221.0971190988737A221.0971190988737,221.0971190988737,0,1,1,4.0614881880770517e-14,-221.0971190988737A221.0971190988737,221.0971190988737,0,1,1,-4.0614881880770517e-14,221.0971190988737Z" stroke="#e4e4e4" fill="none"/><text dy="1em" fill="#555"><textPath xlink:href="#O-circle-6184" startOffset="50%">Flamengo</textPath></text></g></svg>